<svg width="32" height="32" viewBox="0 0 32 32" fill="none" xmlns="http://www.w3.org/2000/svg">
<path d="M16 24.6667L12 22.6667M12 22.6667L4 26.6667V9.33333L12 5.33333M12 22.6667V5.33333M12 5.33333L20 9.33333M20 9.33333L28 5.33333V14.6667M20 9.33333V16M25.3333 24V24.0133M28.1613 26.828C28.7209 26.2686 29.1019 25.5559 29.2564 24.78C29.4108 24.004 29.3317 23.1997 29.029 22.4687C28.7263 21.7377 28.2136 21.1129 27.5557 20.6734C26.8979 20.2338 26.1245 19.9991 25.3333 19.9991C24.5422 19.9991 23.7687 20.2338 23.1109 20.6734C22.4531 21.1129 21.9404 21.7377 21.6377 22.4687C21.335 23.1997 21.2558 24.004 21.4103 24.78C21.5647 25.5559 21.9458 26.2686 22.5053 26.828C23.0627 27.3867 24.0053 28.2213 25.3333 29.3333C26.7347 28.1467 27.6787 27.312 28.1613 26.828Z" stroke="#3B5AD8" stroke-width="2.66667" stroke-linecap="round" stroke-linejoin="round"/>
</svg>
