<svg width="30" height="22" viewBox="0 0 30 22" fill="none" xmlns="http://www.w3.org/2000/svg">
<path d="M15.6667 3.33335C15.6667 1.85335 16.8534 0.666687 18.3334 0.666687H23C24.4667 0.666687 25.6667 1.86669 25.6667 3.33335V6.21335C24.12 6.76002 23 8.22669 23 9.96002V12.6667H15.6667V3.33335ZM7.00004 9.94669V12.6667H14.3334V3.33335C14.3334 1.85335 13.1467 0.666687 11.6667 0.666687H7.00004C5.53337 0.666687 4.33337 1.86669 4.33337 3.33335V6.20002C5.88004 6.74669 7.00004 8.22669 7.00004 9.94669ZM26.5467 7.37335C25.24 7.58669 24.3334 8.82669 24.3334 10.16V14H5.66671V10C5.66671 9.29278 5.38576 8.6145 4.88566 8.1144C4.38556 7.61431 3.70728 7.33335 3.00004 7.33335C2.2928 7.33335 1.61452 7.61431 1.11442 8.1144C0.614326 8.6145 0.333374 9.29278 0.333374 10V16.6667C0.333374 18.1334 1.53337 19.3334 3.00004 19.3334V22H5.66671V19.3334H24.3334V22H27V19.3334C28.4667 19.3334 29.6667 18.1334 29.6667 16.6667V10C29.6667 8.38669 28.2134 7.09335 26.5467 7.37335Z" fill="#4B5C6B"/>
</svg>
