<svg width="28" height="28" viewBox="0 0 28 28" fill="none" xmlns="http://www.w3.org/2000/svg">
<path d="M14 27.3334H5.99996C5.99996 26.6261 6.28091 25.9478 6.78101 25.4477C7.28111 24.9476 7.95938 24.6667 8.66663 24.6667V8.66669H0.666626V4.66669H19.3333V8.66669H11.3333V24.6667C12.0405 24.6667 12.7188 24.9476 13.2189 25.4477C13.719 25.9478 14 26.6261 14 27.3334ZM27.3333 0.666687V27.3334H24.6666V18H18V27.3334H15.3333V16.6667C15.3333 15.9594 15.6142 15.2812 16.1143 14.7811C16.6144 14.281 17.2927 14 18 14H24.6666V0.666687H27.3333Z" fill="#4B5C6B"/>
</svg>
