<svg width="32" height="32" viewBox="0 0 32 32" fill="none" xmlns="http://www.w3.org/2000/svg">
<mask id="mask0_18_717" style="mask-type:luminance" maskUnits="userSpaceOnUse" x="1" y="4" width="30" height="24">
<path d="M28 5.33331H3.99996C3.26358 5.33331 2.66663 5.93027 2.66663 6.66665V17.3333C2.66663 18.0697 3.26358 18.6666 3.99996 18.6666H28C28.7363 18.6666 29.3333 18.0697 29.3333 17.3333V6.66665C29.3333 5.93027 28.7363 5.33331 28 5.33331Z" stroke="white" stroke-width="2.66667" stroke-linecap="round" stroke-linejoin="round"/>
<path d="M8 13.3333H24V18.6666H8V13.3333Z" fill="#555555" stroke="white" stroke-width="2.66667" stroke-linecap="round" stroke-linejoin="round"/>
<path d="M21.3333 9.33331H24M16 22.6666V26.6666M10.6666 24V25.3333M21.3333 24V25.3333" stroke="white" stroke-width="2.66667" stroke-linecap="round" stroke-linejoin="round"/>
</mask>
<g mask="url(#mask0_18_717)">
<path d="M0 0H32V32H0V0Z" fill="#4B5C6B"/>
</g>
</svg>
