<svg width="40" height="28" viewBox="0 0 40 28" fill="none" xmlns="http://www.w3.org/2000/svg">
<path d="M39.6819 7.68C28.6088 -2.56187 11.3869 -2.55813 0.318133 7.68C-0.0981171 8.065 -0.106242 8.71688 0.296258 9.11625L2.43626 11.2394C2.82001 11.6206 3.43751 11.6288 3.83626 11.2631C12.9563 2.90813 27.0425 2.90625 36.1644 11.2631C36.5631 11.6288 37.1806 11.62 37.5644 11.2394L39.7044 9.11625C40.1063 8.71688 40.0981 8.065 39.6819 7.68ZM20 20C17.7906 20 16 21.7906 16 24C16 26.2094 17.7906 28 20 28C22.2094 28 24 26.2094 24 24C24 21.7906 22.2094 20 20 20ZM32.6669 14.7756C25.4631 8.405 14.5288 8.41187 7.33313 14.7756C6.90188 15.1569 6.88813 15.8187 7.29751 16.2225L9.45001 18.3469C9.82501 18.7169 10.4288 18.7419 10.8281 18.3969C16.075 13.8612 23.9369 13.8713 29.1713 18.3969C29.5706 18.7419 30.1744 18.7175 30.5494 18.3469L32.7019 16.2225C33.1119 15.8187 33.0975 15.1562 32.6669 14.7756Z" fill="#4B5C6B"/>
</svg>
