<svg width="32" height="22" viewBox="0 0 32 22" fill="none" xmlns="http://www.w3.org/2000/svg">
<path d="M4.0001 7C3.99996 5.83975 4.28822 4.69765 4.83896 3.67644C5.3897 2.65522 6.18565 1.78692 7.15521 1.14963C8.12477 0.512334 9.23754 0.126036 10.3934 0.0254782C11.5493 -0.0750792 12.7121 0.113258 13.7771 0.57355C14.8422 1.03384 15.7761 1.75165 16.4949 2.66242C17.2137 3.57319 17.6949 4.64835 17.8951 5.79119C18.0953 6.93404 18.0083 8.10874 17.6419 9.20963C17.2755 10.3105 16.6412 11.3031 15.7961 12.098C17.3897 12.8713 18.7734 14.0175 19.8297 15.4394C20.886 16.8613 21.5839 18.517 21.8641 20.266C21.895 20.4606 21.8872 20.6594 21.8412 20.851C21.7953 21.0426 21.712 21.2233 21.5962 21.3828C21.4804 21.5422 21.3343 21.6773 21.1664 21.7803C20.9984 21.8832 20.8117 21.9521 20.6171 21.983C20.4225 22.0139 20.2237 22.0061 20.0321 21.9601C19.8405 21.9142 19.6598 21.8309 19.5003 21.7151C19.3409 21.5993 19.2058 21.4532 19.1028 21.2852C18.9999 21.1173 18.931 20.9306 18.9001 20.736C18.6001 18.8566 17.64 17.1457 16.192 15.9106C14.7441 14.6754 12.9033 13.997 11.0001 13.997C9.09693 13.997 7.2561 14.6754 5.80817 15.9106C4.36024 17.1457 3.40008 18.8566 3.1001 20.736C3.06911 20.9306 3.00009 21.1172 2.89698 21.2852C2.79387 21.4531 2.65869 21.5991 2.49916 21.7148C2.33963 21.8305 2.15887 21.9137 1.96721 21.9595C1.77554 22.0053 1.57672 22.013 1.3821 21.982C1.18749 21.951 1.00088 21.882 0.832932 21.7789C0.664988 21.6758 0.518997 21.5406 0.403295 21.3811C0.287594 21.2215 0.204447 21.0408 0.158602 20.8491C0.112757 20.6574 0.105113 20.4586 0.136105 20.264C0.416774 18.5156 1.11486 16.8607 2.17117 15.4395C3.22748 14.0183 4.61089 12.8728 6.2041 12.1C5.50745 11.4459 4.95241 10.6557 4.57331 9.77852C4.19421 8.9013 3.99912 7.95563 4.0001 7ZM22.0001 4C23.1621 4.00081 24.2989 4.33892 25.2725 4.9733C26.2461 5.60767 27.0146 6.51102 27.4848 7.5737C27.9549 8.63637 28.1064 9.81267 27.921 10.9598C27.7356 12.1069 27.2211 13.1756 26.4401 14.036C27.6575 14.6404 28.7391 15.4861 29.6193 16.5217C30.4995 17.5573 31.1598 18.7611 31.5601 20.06C31.6394 20.3121 31.6505 20.5808 31.5924 20.8386C31.5343 21.0965 31.4091 21.3343 31.2293 21.5281C31.0495 21.7219 30.8217 21.8646 30.5689 21.9419C30.3162 22.0192 30.0475 22.0282 29.7901 21.968C29.533 21.9081 29.2961 21.7816 29.1034 21.6011C28.9106 21.4207 28.7688 21.1927 28.6921 20.94C28.3337 19.7804 27.6805 18.7337 26.7963 17.9022C25.9122 17.0706 24.8275 16.4828 23.6481 16.196C23.3206 16.1169 23.0292 15.9299 22.821 15.665C22.6127 15.4002 22.4997 15.0729 22.5001 14.736V14.032C22.4999 13.7527 22.5777 13.479 22.7247 13.2415C22.8717 13.0041 23.0821 12.8124 23.3321 12.688C23.9384 12.3875 24.4254 11.8908 24.7138 11.2787C25.0022 10.6665 25.0752 9.97485 24.9209 9.31597C24.7666 8.6571 24.3941 8.06974 23.8639 7.6493C23.3336 7.22886 22.6768 7.00004 22.0001 7C21.6023 7 21.2208 6.84196 20.9394 6.56066C20.6581 6.27936 20.5001 5.89782 20.5001 5.5C20.5001 5.10218 20.6581 4.72064 20.9394 4.43934C21.2208 4.15804 21.6023 4 22.0001 4ZM11.0001 3C10.4674 2.98795 9.93771 3.08245 9.44206 3.27794C8.9464 3.47343 8.4948 3.76598 8.11376 4.13841C7.73272 4.51083 7.42993 4.95563 7.22316 5.44669C7.01639 5.93775 6.90981 6.46516 6.90967 6.99798C6.90954 7.53079 7.01586 8.05826 7.22238 8.54942C7.42891 9.04058 7.73148 9.48553 8.11233 9.85815C8.49318 10.2308 8.94464 10.5235 9.4402 10.7193C9.93575 10.915 10.4654 11.0098 10.9981 10.998C12.0432 10.9749 13.0378 10.5436 13.7688 9.79632C14.4999 9.04909 14.9094 8.04536 14.9097 6.99998C14.9099 5.9546 14.5009 4.95066 13.7702 4.20306C13.0395 3.45547 12.0452 3.02363 11.0001 3Z" fill="#3B5AD8"/>
</svg>
