<svg width="32" height="32" viewBox="0 0 32 32" fill="none" xmlns="http://www.w3.org/2000/svg">
<path d="M2.28571 19.4286V22.8571C2.28571 24.869 3.04762 26.5714 4.57143 27.9643V31.4286C4.57143 31.5952 4.625 31.7321 4.73214 31.8393C4.83928 31.9464 4.97619 32 5.14286 32H6.28571C6.45238 32 6.58928 31.9464 6.69643 31.8393C6.80357 31.7321 6.85714 31.5952 6.85714 31.4286V29.3214C7.60714 29.5833 8.36905 29.7143 9.14286 29.7143H22.8571C23.631 29.7143 24.3929 29.5833 25.1429 29.3214V31.2857C25.1429 31.4881 25.1994 31.6577 25.3125 31.7946C25.4256 31.9315 25.5595 32 25.7143 32H26.8571C27.0119 32 27.1458 31.9315 27.2589 31.7946C27.372 31.6577 27.4286 31.4881 27.4286 31.2857V27.9643C28.9524 26.5714 29.7143 24.869 29.7143 22.8571V19.4286H2.28571ZM19.4286 12C19.4286 12.1667 19.4821 12.3036 19.5893 12.4107C19.6964 12.5179 19.8333 12.5714 20 12.5714C20.1667 12.5714 20.3036 12.5179 20.4107 12.4107C20.5179 12.3036 20.5714 12.1667 20.5714 12C20.5714 11.8333 20.5179 11.6964 20.4107 11.5893C20.3036 11.4821 20.1667 11.4286 20 11.4286C19.8333 11.4286 19.6964 11.4821 19.5893 11.5893C19.4821 11.6964 19.4286 11.8333 19.4286 12ZM18.2857 10.8571C18.2857 11.0238 18.3393 11.1607 18.4464 11.2679C18.5536 11.375 18.6905 11.4286 18.8571 11.4286C19.0238 11.4286 19.1607 11.375 19.2679 11.2679C19.375 11.1607 19.4286 11.0238 19.4286 10.8571C19.4286 10.6905 19.375 10.5536 19.2679 10.4464C19.1607 10.3393 19.0238 10.2857 18.8571 10.2857C18.6905 10.2857 18.5536 10.3393 18.4464 10.4464C18.3393 10.5536 18.2857 10.6905 18.2857 10.8571ZM19.4286 9.71429C19.4286 9.88095 19.4821 10.0179 19.5893 10.125C19.6964 10.2321 19.8333 10.2857 20 10.2857C20.1667 10.2857 20.3036 10.2321 20.4107 10.125C20.5179 10.0179 20.5714 9.88095 20.5714 9.71429C20.5714 9.54762 20.5179 9.41072 20.4107 9.30357C20.3036 9.19643 20.1667 9.14286 20 9.14286C19.8333 9.14286 19.6964 9.19643 19.5893 9.30357C19.4821 9.41072 19.4286 9.54762 19.4286 9.71429ZM17.1429 9.71429C17.1429 9.88095 17.1964 10.0179 17.3036 10.125C17.4107 10.2321 17.5476 10.2857 17.7143 10.2857C17.881 10.2857 18.0179 10.2321 18.125 10.125C18.2321 10.0179 18.2857 9.88095 18.2857 9.71429C18.2857 9.54762 18.2321 9.41072 18.125 9.30357C18.0179 9.19643 17.881 9.14286 17.7143 9.14286C17.5476 9.14286 17.4107 9.19643 17.3036 9.30357C17.1964 9.41072 17.1429 9.54762 17.1429 9.71429ZM18.2857 8.57143C18.2857 8.7381 18.3393 8.875 18.4464 8.98214C18.5536 9.08929 18.6905 9.14286 18.8571 9.14286C19.0238 9.14286 19.1607 9.08929 19.2679 8.98214C19.375 8.875 19.4286 8.7381 19.4286 8.57143C19.4286 8.40476 19.375 8.26786 19.2679 8.16072C19.1607 8.05357 19.0238 8 18.8571 8C18.6905 8 18.5536 8.05357 18.4464 8.16072C18.3393 8.26786 18.2857 8.40476 18.2857 8.57143ZM19.4286 7.42857C19.4286 7.59524 19.4821 7.73214 19.5893 7.83929C19.6964 7.94643 19.8333 8 20 8C20.1667 8 20.3036 7.94643 20.4107 7.83929C20.5179 7.73214 20.5714 7.59524 20.5714 7.42857C20.5714 7.26191 20.5179 7.125 20.4107 7.01786C20.3036 6.91071 20.1667 6.85714 20 6.85714C19.8333 6.85714 19.6964 6.91071 19.5893 7.01786C19.4821 7.125 19.4286 7.26191 19.4286 7.42857ZM0 16.5714V17.7143C0 17.881 0.0535698 18.0179 0.160713 18.125C0.267857 18.2321 0.40476 18.2857 0.571426 18.2857H31.4286C31.5952 18.2857 31.7321 18.2321 31.8393 18.125C31.9464 18.0179 32 17.881 32 17.7143V16.5714C32 16.4048 31.9464 16.2679 31.8393 16.1607C31.7321 16.0536 31.5952 16 31.4286 16H29.7143V4.57143C29.7143 3.30952 29.2679 2.23214 28.375 1.33929C27.4821 0.446429 26.4048 0 25.1429 0C23.8571 0 22.7619 0.464286 21.8571 1.39286C21.3095 1.16667 20.7262 1.09524 20.1071 1.17857C19.4881 1.2619 18.9345 1.49405 18.4464 1.875L18.0536 1.48214C17.9226 1.35119 17.7917 1.35119 17.6607 1.48214L16.9107 2.23214C16.7798 2.3631 16.7798 2.49405 16.9107 2.625L22.5179 8.23214C22.6488 8.3631 22.7798 8.3631 22.9107 8.23214L23.6607 7.48214C23.7917 7.35119 23.7917 7.22024 23.6607 7.08929L23.2679 6.69643C23.6964 6.14881 23.9375 5.52976 23.9911 4.83929C24.0446 4.14881 23.9048 3.50595 23.5714 2.91071C24.0119 2.49405 24.5357 2.28571 25.1429 2.28571C25.7738 2.28571 26.3125 2.50893 26.7589 2.95536C27.2054 3.40179 27.4286 3.94048 27.4286 4.57143V16H0.571426C0.40476 16 0.267857 16.0536 0.160713 16.1607C0.0535698 16.2679 0 16.4048 0 16.5714ZM16 8.57143C16 8.7381 16.0536 8.875 16.1607 8.98214C16.2679 9.08929 16.4048 9.14286 16.5714 9.14286C16.7381 9.14286 16.875 9.08929 16.9821 8.98214C17.0893 8.875 17.1429 8.7381 17.1429 8.57143C17.1429 8.40476 17.0893 8.26786 16.9821 8.16072C16.875 8.05357 16.7381 8 16.5714 8C16.4048 8 16.2679 8.05357 16.1607 8.16072C16.0536 8.26786 16 8.40476 16 8.57143ZM17.1429 7.42857C17.1429 7.59524 17.1964 7.73214 17.3036 7.83929C17.4107 7.94643 17.5476 8 17.7143 8C17.881 8 18.0179 7.94643 18.125 7.83929C18.2321 7.73214 18.2857 7.59524 18.2857 7.42857C18.2857 7.26191 18.2321 7.125 18.125 7.01786C18.0179 6.91071 17.881 6.85714 17.7143 6.85714C17.5476 6.85714 17.4107 6.91071 17.3036 7.01786C17.1964 7.125 17.1429 7.26191 17.1429 7.42857ZM18.2857 6.28571C18.2857 6.45238 18.3393 6.58929 18.4464 6.69643C18.5536 6.80357 18.6905 6.85714 18.8571 6.85714C19.0238 6.85714 19.1607 6.80357 19.2679 6.69643C19.375 6.58929 19.4286 6.45238 19.4286 6.28571C19.4286 6.11905 19.375 5.98214 19.2679 5.875C19.1607 5.76786 19.0238 5.71429 18.8571 5.71429C18.6905 5.71429 18.5536 5.76786 18.4464 5.875C18.3393 5.98214 18.2857 6.11905 18.2857 6.28571ZM14.8571 7.42857C14.8571 7.59524 14.9107 7.73214 15.0179 7.83929C15.125 7.94643 15.2619 8 15.4286 8C15.5952 8 15.7321 7.94643 15.8393 7.83929C15.9464 7.73214 16 7.59524 16 7.42857C16 7.26191 15.9464 7.125 15.8393 7.01786C15.7321 6.91071 15.5952 6.85714 15.4286 6.85714C15.2619 6.85714 15.125 6.91071 15.0179 7.01786C14.9107 7.125 14.8571 7.26191 14.8571 7.42857ZM16 6.28571C16 6.45238 16.0536 6.58929 16.1607 6.69643C16.2679 6.80357 16.4048 6.85714 16.5714 6.85714C16.7381 6.85714 16.875 6.80357 16.9821 6.69643C17.0893 6.58929 17.1429 6.45238 17.1429 6.28571C17.1429 6.11905 17.0893 5.98214 16.9821 5.875C16.875 5.76786 16.7381 5.71429 16.5714 5.71429C16.4048 5.71429 16.2679 5.76786 16.1607 5.875C16.0536 5.98214 16 6.11905 16 6.28571ZM17.1429 5.14286C17.1429 5.30952 17.1964 5.44643 17.3036 5.55357C17.4107 5.66071 17.5476 5.71429 17.7143 5.71429C17.881 5.71429 18.0179 5.66071 18.125 5.55357C18.2321 5.44643 18.2857 5.30952 18.2857 5.14286C18.2857 4.97619 18.2321 4.83929 18.125 4.73214C18.0179 4.625 17.881 4.57143 17.7143 4.57143C17.5476 4.57143 17.4107 4.625 17.3036 4.73214C17.1964 4.83929 17.1429 4.97619 17.1429 5.14286ZM13.7143 6.28571C13.7143 6.45238 13.7679 6.58929 13.875 6.69643C13.9821 6.80357 14.119 6.85714 14.2857 6.85714C14.4524 6.85714 14.5893 6.80357 14.6964 6.69643C14.8036 6.58929 14.8571 6.45238 14.8571 6.28571C14.8571 6.11905 14.8036 5.98214 14.6964 5.875C14.5893 5.76786 14.4524 5.71429 14.2857 5.71429C14.119 5.71429 13.9821 5.76786 13.875 5.875C13.7679 5.98214 13.7143 6.11905 13.7143 6.28571ZM14.8571 5.14286C14.8571 5.30952 14.9107 5.44643 15.0179 5.55357C15.125 5.66071 15.2619 5.71429 15.4286 5.71429C15.5952 5.71429 15.7321 5.66071 15.8393 5.55357C15.9464 5.44643 16 5.30952 16 5.14286C16 4.97619 15.9464 4.83929 15.8393 4.73214C15.7321 4.625 15.5952 4.57143 15.4286 4.57143C15.2619 4.57143 15.125 4.625 15.0179 4.73214C14.9107 4.83929 14.8571 4.97619 14.8571 5.14286ZM12.5714 5.14286C12.5714 5.30952 12.625 5.44643 12.7321 5.55357C12.8393 5.66071 12.9762 5.71429 13.1429 5.71429C13.3095 5.71429 13.4464 5.66071 13.5536 5.55357C13.6607 5.44643 13.7143 5.30952 13.7143 5.14286C13.7143 4.97619 13.6607 4.83929 13.5536 4.73214C13.4464 4.625 13.3095 4.57143 13.1429 4.57143C12.9762 4.57143 12.8393 4.625 12.7321 4.73214C12.625 4.83929 12.5714 4.97619 12.5714 5.14286Z" fill="#4B5C6B"/>
</svg>
