<svg width="26" height="16" viewBox="0 0 26 16" fill="none" xmlns="http://www.w3.org/2000/svg">
<path fill-rule="evenodd" clip-rule="evenodd" d="M0.368774 3.48149C0.368774 2.48712 0.368774 1.60297 0.385401 0.814819H25.9321C25.9487 1.60297 25.9487 2.48712 25.9487 3.48149V5.85186C25.9487 10.3212 25.9487 12.5564 24.4497 13.9443C22.952 15.3333 20.5398 15.3333 15.7167 15.3333H10.6007C5.77765 15.3333 3.36546 15.3333 1.86776 13.9443C0.368774 12.5564 0.368774 10.3212 0.368774 5.85186V3.48149ZM19.5537 5.85186C19.8929 5.85186 20.2183 5.72699 20.4581 5.50472C20.698 5.28246 20.8327 4.981 20.8327 4.66667C20.8327 4.35234 20.698 4.05088 20.4581 3.82862C20.2183 3.60635 19.8929 3.48149 19.5537 3.48149C19.2145 3.48149 18.8892 3.60635 18.6493 3.82862C18.4095 4.05088 18.2747 4.35234 18.2747 4.66667C18.2747 4.981 18.4095 5.28246 18.6493 5.50472C18.8892 5.72699 19.2145 5.85186 19.5537 5.85186ZM19.5537 10.5926C19.8929 10.5926 20.2183 10.4677 20.4581 10.2455C20.698 10.0232 20.8327 9.72174 20.8327 9.40741C20.8327 9.09308 20.698 8.79162 20.4581 8.56936C20.2183 8.34709 19.8929 8.22223 19.5537 8.22223C19.2145 8.22223 18.8892 8.34709 18.6493 8.56936C18.4095 8.79162 18.2747 9.09308 18.2747 9.40741C18.2747 9.72174 18.4095 10.0232 18.6493 10.2455C18.8892 10.4677 19.2145 10.5926 19.5537 10.5926ZM14.4377 4.66667C14.4377 4.981 14.303 5.28246 14.0631 5.50472C13.8233 5.72699 13.498 5.85186 13.1587 5.85186C12.8195 5.85186 12.4942 5.72699 12.2544 5.50472C12.0145 5.28246 11.8797 4.981 11.8797 4.66667C11.8797 4.35234 12.0145 4.05088 12.2544 3.82862C12.4942 3.60635 12.8195 3.48149 13.1587 3.48149C13.498 3.48149 13.8233 3.60635 14.0631 3.82862C14.303 4.05088 14.4377 4.35234 14.4377 4.66667ZM14.4377 9.40741C14.4377 9.72174 14.303 10.0232 14.0631 10.2455C13.8233 10.4677 13.498 10.5926 13.1587 10.5926C12.8195 10.5926 12.4942 10.4677 12.2544 10.2455C12.0145 10.0232 11.8797 9.72174 11.8797 9.40741C11.8797 9.09308 12.0145 8.79162 12.2544 8.56936C12.4942 8.34709 12.8195 8.22223 13.1587 8.22223C13.498 8.22223 13.8233 8.34709 14.0631 8.56936C14.303 8.79162 14.4377 9.09308 14.4377 9.40741ZM6.76376 5.85186C7.10297 5.85186 7.42829 5.72699 7.66815 5.50472C7.908 5.28246 8.04276 4.981 8.04276 4.66667C8.04276 4.35234 7.908 4.05088 7.66815 3.82862C7.42829 3.60635 7.10297 3.48149 6.76376 3.48149C6.42455 3.48149 6.09923 3.60635 5.85937 3.82862C5.61951 4.05088 5.48476 4.35234 5.48476 4.66667C5.48476 4.981 5.61951 5.28246 5.85937 5.50472C6.09923 5.72699 6.42455 5.85186 6.76376 5.85186ZM6.76376 10.5926C7.10297 10.5926 7.42829 10.4677 7.66815 10.2455C7.908 10.0232 8.04276 9.72174 8.04276 9.40741C8.04276 9.09308 7.908 8.79162 7.66815 8.56936C7.42829 8.34709 7.10297 8.22223 6.76376 8.22223C6.42455 8.22223 6.09923 8.34709 5.85937 8.56936C5.61951 8.79162 5.48476 9.09308 5.48476 9.40741C5.48476 9.72174 5.61951 10.0232 5.85937 10.2455C6.09923 10.4677 6.42455 10.5926 6.76376 10.5926Z" fill="#F1F5FF"/>
</svg>
